<?xml version="1.0" encoding="UTF-8" standalone="no"?>
<!DOCTYPE svg PUBLIC "-//W3C//DTD SVG 1.1//EN" "http://www.w3.org/Graphics/SVG/1.1/DTD/svg11.dtd"
[
<!ATTLIST g
  xmlns:vectornator CDATA #FIXED "http://vectornator.io"
  vectornator:layerName CDATA #IMPLIED >
<!ATTLIST g
  xmlns:vectornator CDATA #FIXED "http://vectornator.io"
  vectornator:mask CDATA #IMPLIED >
<!ATTLIST text
  xmlns:vectornator CDATA #FIXED "http://vectornator.io"
  vectornator:width CDATA #IMPLIED >
<!ATTLIST text
  xmlns:vectornator CDATA #FIXED "http://vectornator.io"
  vectornator:text CDATA #IMPLIED >

<!ATTLIST path
  xmlns:vectornator CDATA #FIXED "http://vectornator.io"
  vectornator:blendMode CDATA #IMPLIED >
<!ATTLIST path
  xmlns:vectornator CDATA #FIXED "http://vectornator.io"
  vectornator:shadowColor CDATA #IMPLIED >
<!ATTLIST path
  xmlns:vectornator CDATA #FIXED "http://vectornator.io"
  vectornator:shadowOpacity CDATA #IMPLIED >
<!ATTLIST path
  xmlns:vectornator CDATA #FIXED "http://vectornator.io"
  vectornator:shadowRadius CDATA #IMPLIED >
<!ATTLIST path
  xmlns:vectornator CDATA #FIXED "http://vectornator.io"
  vectornator:shadowOffset CDATA #IMPLIED >
<!ATTLIST path
  xmlns:vectornator CDATA #FIXED "http://vectornator.io"
  vectornator:shadowAngle CDATA #IMPLIED >

<!ATTLIST image
  xmlns:vectornator CDATA #FIXED "http://vectornator.io"
  vectornator:blendMode CDATA #IMPLIED >
<!ATTLIST image
  xmlns:vectornator CDATA #FIXED "http://vectornator.io"
  vectornator:shadowColor CDATA #IMPLIED >
<!ATTLIST image
  xmlns:vectornator CDATA #FIXED "http://vectornator.io"
  vectornator:shadowOpacity CDATA #IMPLIED >
<!ATTLIST image
  xmlns:vectornator CDATA #FIXED "http://vectornator.io"
  vectornator:shadowRadius CDATA #IMPLIED >
<!ATTLIST image
  xmlns:vectornator CDATA #FIXED "http://vectornator.io"
  vectornator:shadowOffset CDATA #IMPLIED >
<!ATTLIST image
  xmlns:vectornator CDATA #FIXED "http://vectornator.io"
  vectornator:shadowAngle CDATA #IMPLIED >

<!ATTLIST g
  xmlns:vectornator CDATA #FIXED "http://vectornator.io"
  vectornator:blendMode CDATA #IMPLIED >
<!ATTLIST g
  xmlns:vectornator CDATA #FIXED "http://vectornator.io"
  vectornator:shadowColor CDATA #IMPLIED >
<!ATTLIST g
  xmlns:vectornator CDATA #FIXED "http://vectornator.io"
  vectornator:shadowOpacity CDATA #IMPLIED >
<!ATTLIST g
  xmlns:vectornator CDATA #FIXED "http://vectornator.io"
  vectornator:shadowRadius CDATA #IMPLIED >
<!ATTLIST g
  xmlns:vectornator CDATA #FIXED "http://vectornator.io"
  vectornator:shadowOffset CDATA #IMPLIED >
<!ATTLIST g
  xmlns:vectornator CDATA #FIXED "http://vectornator.io"
  vectornator:shadowAngle CDATA #IMPLIED >

<!ENTITY % SVG.filter.extra.content  "| feDropShadow" >
<!ELEMENT feDropShadow EMPTY>
<!ATTLIST feDropShadow
  xmlns:svg CDATA #FIXED "http://www.w3.org/Graphics/SVG/1.1/DTD/svg11.dtd"
  dx CDATA #IMPLIED>
<!ATTLIST feDropShadow
  xmlns:svg CDATA #FIXED "http://www.w3.org/Graphics/SVG/1.1/DTD/svg11.dtd"
  dy CDATA #IMPLIED>
<!ATTLIST feDropShadow
  xmlns:svg CDATA #FIXED "http://www.w3.org/Graphics/SVG/1.1/DTD/svg11.dtd"
  stdDeviation CDATA #IMPLIED>
<!ATTLIST feDropShadow
  xmlns:svg CDATA #FIXED "http://www.w3.org/Graphics/SVG/1.1/DTD/svg11.dtd"
  flood-opacity CDATA #IMPLIED>
<!ATTLIST feDropShadow
  xmlns:svg CDATA #FIXED "http://www.w3.org/Graphics/SVG/1.1/DTD/svg11.dtd"
  in CDATA #IMPLIED>
<!ATTLIST feDropShadow
  xmlns:svg CDATA #FIXED "http://www.w3.org/Graphics/SVG/1.1/DTD/svg11.dtd"
  result CDATA #IMPLIED>
<!ATTLIST feDropShadow
  xmlns:svg CDATA #FIXED "http://www.w3.org/Graphics/SVG/1.1/DTD/svg11.dtd"
  flood-color CDATA #IMPLIED>
]
>
<!-- Created with Vectornator (http://vectornator.io/) -->
<svg height="100%" stroke-miterlimit="10" style="fill-rule:nonzero;clip-rule:evenodd;stroke-linecap:round;stroke-linejoin:round;" version="1.1" viewBox="0 0 180 180" width="100%" xml:space="preserve" xmlns="http://www.w3.org/2000/svg" xmlns:vectornator="http://vectornator.io" xmlns:xlink="http://www.w3.org/1999/xlink">
<defs/>
<g id="Слой-2" vectornator:layerName="Слой 2">
<path d="M1.18888 85.8017C1.18888 58.9082 23.4576 37.1067 50.9274 37.1067C78.3972 37.1067 100.666 58.9082 100.666 85.8017C100.666 112.695 78.3972 134.497 50.9274 134.497C23.4576 134.497 1.18888 112.695 1.18888 85.8017Z" fill="#66b4f9" fill-rule="evenodd" opacity="0.228997" stroke="none"/>
<path d="M65.9538 53.0922C65.9538 26.9174 89.397 5.69848 118.316 5.69848C147.234 5.69848 170.677 26.9174 170.677 53.0922C170.677 79.2671 147.234 100.486 118.316 100.486C89.397 100.486 65.9538 79.2671 65.9538 53.0922Z" fill="#66b4f9" fill-rule="evenodd" opacity="0.228997" stroke="none"/>
<path d="M4.91323 148.513C4.91323 133.136 17.8288 120.672 33.7609 120.672C49.6931 120.672 62.6087 133.136 62.6087 148.513C62.6087 163.889 49.6931 176.353 33.7609 176.353C17.8288 176.353 4.91323 163.889 4.91323 148.513Z" fill="#66b4f9" fill-rule="evenodd" opacity="0.228997" stroke="none"/>
<path d="M80.7713 114.075C80.7713 88.5816 102.394 67.9149 129.066 67.9149C155.738 67.9149 177.361 88.5816 177.361 114.075C177.361 139.569 155.738 160.236 129.066 160.236C102.394 160.236 80.7713 139.569 80.7713 114.075Z" fill="#66b4f9" fill-rule="evenodd" opacity="0.228997" stroke="none"/>
<path d="M35.6524 115.238C35.6524 86.5156 59.1145 63.2315 88.0565 63.2315C116.998 63.2315 140.461 86.5156 140.461 115.238C140.461 143.96 116.998 167.244 88.0565 167.244C59.1145 167.244 35.6524 143.96 35.6524 115.238Z" fill="#ffffff" fill-rule="evenodd" opacity="0.48879" stroke="none"/>
<g opacity="1">
<g opacity="1">
<path d="M58.7048 86.3851C58.197 85.2724 57.2987 80.3347 57.7062 79.2272C58.0638 78.2552 59.6778 78.3535 60.4548 78.1622C63.6917 77.3654 67.2679 76.6086 70.3605 78.3633C73.1537 79.9481 72.2964 83.4304 72.8777 86.0091C73.2474 87.649 72.9775 90.6164 72.1106 92.1045C71.2954 93.5037 69.9641 94.3895 68.8602 95.5338C67.2935 97.1578 65.816 98.8371 64.3492 100.534" fill="#f5ba9a" fill-rule="evenodd" opacity="1" stroke="none"/>
<path d="M60.5348 79.4719C60.4345 81.3347 59.9817 83.8635 60.9637 85.5792C61.576 86.6489 62.7363 87.2833 63.2321 88.4677C63.9752 90.2431 62.8994 93.0473 60.6366 92.2043C60.2119 92.0461 59.9172 92.0433 59.5968 91.6958C57.8689 89.8216 58.3737 87.3395 58.2176 85.0733C58.065 82.8569 55.5943 77.9195 59.1041 77.0689C59.5658 76.957 60.0758 77.0684 60.5402 77.1065" fill="#d5a083" fill-rule="evenodd" opacity="1" stroke="none"/>
<path d="M70.5257 79.7925C71.1036 80.4507 71.3191 81.5998 71.4013 82.4598C71.4151 82.6032 71.3454 83.6713 71.4068 83.7262C71.5289 83.8355 72.5381 83.587 72.6108 83.4164C72.6667 83.2855 72.6163 82.9233 72.6243 82.7737C72.667 81.9746 72.5591 80.9772 72.3067 80.2151C72.1103 79.622 71.7112 79.0106 71.6918 78.3798" fill="#d5a083" fill-rule="evenodd" opacity="1" stroke="none"/>
</g>
<path d="M55.1882 85.614C55.1882 85.614 53.5803 82.7666 54.1529 78.0341C54.2293 77.4032 54.8144 70.5392 67.894 71.3817C73.0907 71.7164 72.9258 79.3356 71.5425 80.1019C69.569 81.1953 58.7574 79.2055 58.2418 79.3242C57.7441 79.4387 58.6252 84.8969 58.6252 84.8969L56.7238 84.7984L55.1882 85.614Z" fill="#000000" fill-rule="evenodd" opacity="1" stroke="none"/>
<g opacity="1">
<g opacity="1">
<path d="M58.6203 84.9309C56.334 81.6954 53.7413 83.6592 55.534 87.0406C56.1674 88.2354 57.4673 88.5067 58.4556 89.2894C59.2572 89.9241 59.9678 90.6667 60.674 91.4019" fill="#f5ba9a" fill-rule="evenodd" opacity="1" stroke="none"/>
<path d="M59.4977 91.4074C58.9678 94.7027 54.8098 96.3941 56.2793 100.017C58.1036 104.515 61.9667 107.139 66.3203 108.826C68.1814 109.547 70.7505 110.521 71.9035 108.187C72.5615 106.855 71.6452 104.113 71.3736 102.728C71.2072 101.88 71.1983 100.97 70.9753 100.139C70.0647 96.7439 68.5809 94.422 69.4338 90.7355" fill="#f5ba9a" fill-rule="evenodd" opacity="1" stroke="none"/>
</g>
<path d="M59.7366 104.907C60.1535 104.685 60.3605 104.028 60.6435 103.653C61.7327 102.209 62.7603 100.269 64.557 99.6223C65.7346 99.1982 67.4479 99.331 68.6715 99.3795C69.3352 99.4059 69.7914 99.3754 70.0738 99.0468C71.5219 97.3614 67.8036 94.7691 66.3665 94.3133C64.2914 93.6553 61.4427 92.3618 59.2141 93.1246C58.3257 93.4287 58.1006 94.2691 57.6068 94.9708C55.6372 97.7698 55.2625 99.6204 57.3204 102.633" fill="#d5a083" fill-rule="evenodd" opacity="1" stroke="none"/>
<path d="M68.5615 85.0182C68.4179 86.1307 69.4326 86.872 69.9027 87.7499C70.0308 87.9891 69.7283 88.454 69.7886 88.5495C69.9061 88.7358 70.7159 88.0754 70.7959 87.9659C71.1962 87.4179 71.177 86.6175 70.9505 86.0111" fill="#d5a083" fill-rule="evenodd" opacity="1" stroke="none"/>
<path d="M68.8723 85.6932C69.187 86.0982 70.0204 87.1201 70.1484 87.601C70.2681 88.0506 69.4208 88.5323 69.6609 88.9173C70.0903 89.6056 72.0637 89.7042 72.6108 89.1842C73.8559 88.0009 72.8683 85.6433 71.7908 84.8183" fill="#d5a083" fill-rule="evenodd" opacity="1" stroke="none"/>
<path d="M69.3054 86.1534C68.4166 85.1287 67.639 86.278 67.0574 85.9883C66.6209 85.7709 67.2065 85.2003 67.3967 85.0854C67.8416 84.8166 68.5113 84.7351 69.0067 84.9042C70.0056 85.2453 70.5031 87.5864 71.5655 86.3774" fill="#d5a083" fill-rule="evenodd" opacity="1" stroke="none"/>
<path d="M68.1271 85.7723C67.9785 86.5346 68.3505 87.3824 68.0972 88.1256C68.0749 88.191 68.0689 88.3218 68.0008 88.3094C67.9449 88.2992 67.6345 87.4775 67.0058 87.3836C66.234 87.2685 65.4398 87.842 64.7144 87.7299C63.2702 87.5066 64.4721 85.5213 64.9113 85.0343" fill="#d5a083" fill-rule="evenodd" opacity="1" stroke="none"/>
<path d="M55.4315 86.0387C55.0734 85.1904 55.3294 83.6228 56.5208 83.8552C56.9217 83.9334 57.2055 84.2021 57.5349 84.4146C58.7193 85.1785 58.7202 85.0314 59.2806 86.3881C59.3657 86.5942 59.9086 87.7999 59.7082 87.9874C59.6391 88.052 59.0199 87.1504 58.9506 87.0711C58.4149 86.4568 57.7231 85.249 56.8644 85.1122C55.8477 84.9502 55.6962 86.2635 56.0309 86.9315C56.0516 86.9729 56.4202 87.5482 56.4109 87.5594C56.3186 87.6706 56.1713 87.3906 56.081 87.2777C55.7898 86.9137 55.6121 86.4667 55.4315 86.0387Z" fill="#d5a083" fill-rule="evenodd" opacity="1" stroke="none"/>
</g>
<path d="M58.2181 84.94C58.2181 84.94 56.9099 92.2293 58.3952 93.4987C60.2485 95.0827 62.7769 97.908 70.6867 97.3944C73.6622 97.2012 73.6541 89.1157 73.466 88.5756C73.2081 87.8356 69.5305 88.0698 66.7569 88.5582C65.8992 88.7092 64.541 90.0626 62.3195 89.5488C60.2287 89.0653 58.2181 84.94 58.2181 84.94Z" fill="#000000" fill-rule="evenodd" opacity="1" stroke="none"/>
<path d="M57.3305 83.4877L62.5906 83.7648C62.5906 83.7648 70.087 83.3514 72.5744 82.948C72.6718 82.9322 72.4657 81.9967 72.4657 81.9967C72.4657 81.9967 72.7391 82.4582 73.1823 82.6719C73.4713 82.8113 73.5496 82.4933 73.6228 83.0193C73.696 83.5453 73.3252 83.3802 73.3252 83.3802C73.3252 83.3802 74.2135 86.1528 73.228 86.5736C72.3403 86.9527 70.9388 86.993 69.6341 86.4277C68.3293 85.8623 68.6392 84.7722 68.1439 84.8587C67.6486 84.9452 68.1605 86.0965 67.0349 86.8722C65.9092 87.648 64.3319 88.0095 63.2797 87.4989C62.7109 87.2229 62.3172 85.112 62.3172 85.112L61.7689 84.9865L57.9198 84.1607L57.3305 83.4877Z" fill="#000000" fill-rule="evenodd" opacity="1" stroke="none"/>
</g>
<g opacity="1">
<path d="M56.6259 96.7591C53.2056 95.7548 49.3898 98.7004 47.5606 101.299C45.1608 104.709 45.0149 108.434 44.9569 112.452C44.9124 115.532 45.2103 118.526 46.1959 121.463C46.9393 123.679 47.7747 125.872 48.4317 128.114C48.6015 128.694 49.2093 131.636 49.6394 131.302" fill="#7c4d4d" fill-rule="evenodd" opacity="1" stroke="none"/>
<path d="M49.7077 99.2393C48.4384 100.119 47.0198 101.561 46.1979 102.875C45.9371 103.292 46.1113 103.808 45.8927 104.277C45.6892 104.713 45.3152 105.043 45.1529 105.503C44.969 106.024 45.3911 106.461 45.2269 106.989C45.0912 107.425 44.7328 107.937 44.746 108.404C44.7557 108.746 45.0507 108.931 45.0402 109.283C45.0246 109.81 44.6372 110.273 44.6221 110.811C44.5939 111.819 45.7214 112.726 46.3366 113.379" fill="#7c4d4d" fill-rule="evenodd" opacity="1" stroke="none"/>
<path d="M56.4538 96.8943C57.7406 99.6427 58.5799 100.46 60.9199 102.321C63.0528 104.017 64.0653 105.126 66.8782 105.622C67.8432 105.792 70.0747 106.779 70.8875 105.828C71.7966 104.765 70.7644 101 70.3141 99.7786C70.1943 99.4537 69.4955 97.9787 69.6502 97.6638C69.8279 97.3022 70.7911 98.0627 71.0094 98.1684C72.2202 98.7549 73.3733 99.1073 74.3863 100.044C76.9423 102.406 76.9182 106.473 76.4131 109.656C75.4759 115.562 70.7843 122.751 66.0165 126.157C64.055 127.558 61.8013 128.044 59.7844 129.248C57.4196 130.659 54.1183 131.853 51.3241 131.724C50.904 131.705 49.6598 131.934 49.3378 131.766C49.1526 131.67 48.6136 129.335 48.5039 128.966C47.6583 126.125 47.3497 124.656 47.9122 121.735C48.0123 121.215 47.9642 120.199 48.3762 119.866" fill="#7c4d4d" fill-rule="evenodd" opacity="1" stroke="none"/>
<path d="M74.8541 101.33C75.6149 101.237 75.9192 102.127 76.2298 102.677C77.0418 104.115 77.348 105.69 77.8092 107.274C78.9092 111.052 81.3112 114.314 82.6914 117.999C83.0335 118.913 83.7339 119.614 84.1114 120.438C84.5503 121.396 84.0253 123.332 83.7749 124.287C83.6714 124.682 81.9724 127.83 81.7593 127.974C81.3065 128.279 80.5536 128.32 80.0377 128.522C76.5151 129.903 71.6682 128.953 67.8824 129.445C64.4589 129.89 60.3858 130.911 57.1047 129.489" fill="#7c4d4d" fill-rule="evenodd" opacity="1" stroke="none"/>
<path d="M82.5591 119.66C83.5084 119.954 84.1823 120.685 85.1332 120.947C88.6799 121.922 92.8847 122.347 96.5416 122.462C97.413 122.49 102.436 122.952 102.843 123.429C103.387 124.065 102.787 125.198 102.612 125.859C102.122 127.713 101.308 131.449 99.0564 131.83C97.4219 132.106 95.6988 131.653 94.0682 131.584C90.2535 131.422 86.4043 131.579 82.5828 131.475C76.3767 131.306 70.2676 131.956 64.0807 132.348C60.2268 132.593 56.6001 132.937 52.7969 132.454C52.0945 132.365 50.7974 132.545 50.1844 132.222C49.2825 131.748 49.878 129.48 50.0034 128.767C50.6194 125.262 52.1804 122.02 52.7851 118.47" fill="#7c4d4d" fill-rule="evenodd" opacity="1" stroke="none"/>
<path d="M83.3834 120.621C84.2975 120.732 84.9311 120.34 85.7824 120.343C86.5362 120.345 86.2567 121.269 87.0964 121.269C87.6437 121.269 89.2411 121.169 89.4774 121.486C89.6549 121.724 89.8944 121.952 89.9431 122.245C89.9822 122.48 89.3778 123.45 89.5637 123.611C90.1501 124.121 91.9057 122.389 92.4697 122.192C92.6781 122.12 93.6095 121.725 93.5731 122.315C93.5644 122.457 93.3134 122.484 93.2763 122.62C93.0768 123.357 93.6655 122.793 93.5224 123.538C93.2772 124.816 91.4669 125.727 90.4088 126.12" fill="#7c4d4d" fill-rule="evenodd" opacity="1" stroke="none"/>
<path d="M76.9246 104.9C77.1343 105.5 77.4128 106.205 77.7697 106.731C77.9329 106.972 78.3052 107.025 78.4516 107.276C78.7658 107.815 78.0349 108.813 78.3126 109.475C78.5664 110.079 79.369 110.112 79.7419 110.588C80.3778 111.401 79.3646 111.955 79.5252 112.649C79.6734 113.289 80.7317 112.934 81.1119 113.355C81.6634 113.966 80.8366 114.05 80.8776 114.531C80.9188 115.013 81.5055 114.756 81.699 114.897C82.1444 115.223 81.3782 116.486 81.2807 116.902C80.8699 118.655 79.9659 119.223 78.2235 119.223" fill="#7c4d4d" fill-rule="evenodd" opacity="1" stroke="none"/>
<path d="M47.9712 107.786C46.4834 108.903 47.1389 111.665 47.6373 113.213C48.2155 115.008 48.9288 116.732 49.8172 118.4C50.2789 119.267 50.9808 119.992 51.4119 120.882C52.3567 122.833 52.8779 124.982 53.9187 126.887C54.5303 128.007 55.4413 129.337 56.4872 130.098C56.7293 130.274 58.5612 130.97 58.1957 131.306C57.9287 131.552 56.8157 131.68 56.4611 131.814C55.1311 132.318 50.7066 132.871 49.5637 131.775C48.805 131.047 47.872 127.723 47.5874 126.643C46.398 122.133 45.6365 117.58 45.0189 112.962C44.6845 110.462 44.3002 106.464 47.2865 105.456" fill="#6d4646" fill-rule="evenodd" opacity="1" stroke="none"/>
<path d="M57.3 106.798C59.5311 109.62 59.6049 113.875 60.6172 117.206C60.9387 118.263 61.1395 119.917 61.9725 120.737C62.2959 121.055 62.6892 121.021 63.0792 121.154C63.6699 121.355 64.0565 121.845 64.6858 122.006C66.2862 122.418 67.6409 122.461 69.1757 123.224C71.0021 124.132 72.6239 124.84 74.647 125.081C74.7594 125.095 75.6299 125.483 75.6919 125.414C76.0272 125.043 73.8609 121.709 73.5997 121.332C72.6643 119.983 71.3464 118.688 70.633 117.21C69.8108 115.507 69.5217 113.6 69.1378 111.779C68.9737 111 68.5755 110.232 68.7328 109.44" fill="#6d4646" fill-rule="evenodd" opacity="1" stroke="none"/>
<path d="M71.1259 110.824C72.7091 112.274 73.4523 114.638 74.5189 116.463C75.1925 117.616 75.8316 118.725 76.3766 119.952C76.9815 121.315 77.698 122.599 78.2958 123.962C78.3549 124.097 78.8335 124.854 78.7296 124.997C78.5311 125.271 77.6138 124.889 77.3883 124.81C76.01 124.324 74.6101 123.852 73.3175 123.161C70.9521 121.897 69.4415 120.314 67.6189 118.358C66.8659 117.55 65.8118 116.899 65.195 115.981C64.9601 115.631 64.8615 115.162 64.6051 114.826C64.14 114.217 63.5332 113.57 62.7568 113.4C62.5812 113.361 61.6004 113.372 61.5034 113.213C61.3361 112.938 62.5079 111.919 62.6455 111.761" fill="#6d4646" fill-rule="evenodd" opacity="1" stroke="none"/>
<path d="M45.4739 107.566C45.1863 106.843 44.7265 104.19 46.1373 104.166C46.7483 104.155 48.0678 105.611 48.3622 106.091C48.9456 107.041 47.9976 108.46 47.7344 109.4C47.3791 110.669 47.581 112.385 48.3292 113.498C48.5514 113.829 49.1614 114.871 49.6182 114.917C50.0718 114.963 51.1185 113.545 51.5445 113.978C51.9088 114.349 51.1826 115.684 51.016 116.081C50.3952 117.562 48.0541 121.296 49.6535 122.529" fill="#6d4646" fill-rule="evenodd" opacity="1" stroke="none"/>
<path d="M52.7104 126.341C53.0907 127.403 54.4101 130.074 55.8996 129.735C56.1505 129.678 57.4049 128.566 57.5914 128.707C57.6685 128.765 56.8892 131.397 58.3045 130.73C59.6528 130.095 59.6304 127.802 61.084 127.02C61.178 126.97 62.0586 126.511 62.1431 126.592C62.3542 126.794 61.8671 127.107 61.7213 127.36C61.4071 127.906 61.1792 128.554 61.1147 129.182C61.0302 130.005 61.5516 130.931 61.2189 131.716C60.4213 133.598 58.0761 133.556 56.4872 133.077" fill="#6d4646" fill-rule="evenodd" opacity="1" stroke="none"/>
<path d="M63.8989 119.637C62.1747 119.462 60.8311 121.235 60.5271 122.749C60.505 122.859 60.4362 123.523 60.4656 123.562C60.6181 123.763 60.6362 123.085 60.7381 122.854C60.9552 122.362 61.263 122.03 61.7024 121.723C62.9393 120.86 64.0645 120.97 65.4224 121.468" fill="#6d4646" fill-rule="evenodd" opacity="1" stroke="none"/>
<path d="M62.5079 119.063C61.4362 118.835 60.4143 119.932 59.9894 120.833C59.8679 121.091 59.5293 121.686 59.814 121.669C60.1873 121.648 60.6889 120.736 61.103 120.585C61.9347 120.281 62.8889 120.6 63.6597 120.913" fill="#6d4646" fill-rule="evenodd" opacity="1" stroke="none"/>
<path d="M55.9708 96.9292C55.9762 98.14 56.5705 99.208 57.134 100.25C58.7596 103.256 61.2823 105.128 64.5032 106.245C65.7223 106.668 67.2762 106.811 68.5645 106.709C68.8985 106.683 69.2066 106.532 69.5406 106.494C69.653 106.481 69.8824 106.586 69.8794 106.473C69.8747 106.301 68.2403 106.295 68.0504 106.266C66.7173 106.066 65.5054 105.88 64.2827 105.255C61.2613 103.71 59.091 101.294 57.3901 98.4281C57.0684 97.8861 56.9896 97.2751 56.6839 96.7348" fill="#6d4646" fill-rule="evenodd" opacity="1" stroke="none"/>
<path d="M68.0478 109.51C69.4976 108.983 72.6259 109.571 73.6588 110.723C74.5345 111.7 74.7523 113.254 75.4999 114.348C76.732 116.152 78.1517 117.331 78.7106 119.54C79.1565 121.303 79.9133 123.86 78.1586 124.997" fill="#6d4646" fill-rule="evenodd" opacity="1" stroke="none"/>
<path d="M74.2037 112.252C74.6645 113.052 75.0075 113.594 75.8955 113.971C76.0531 114.038 77.4644 114.256 77.469 114.29C77.4983 114.505 75.3466 115.657 76.1728 116.868C76.4999 117.348 77.4068 117.104 77.9097 117.255C79.1905 117.639 79.6808 118.727 80.0114 119.936C80.036 120.026 80.3584 121.011 80.2982 121.074C80.1167 121.265 79.7685 121.043 79.509 121.086C78.6953 121.222 77.8664 121.75 77.6846 122.552" fill="#6d4646" fill-rule="evenodd" opacity="1" stroke="none"/>
<path d="M83.28 119.227C82.8149 119.274 83.8143 120.959 83.9114 121.447C84.0007 121.895 83.6305 123.207 83.997 123.515C84.5509 123.979 85.05 121.439 86.198 122.234C86.5373 122.468 86.3256 125.789 86.3996 126.468C86.4119 126.581 86.5489 127.74 86.5629 127.739C86.6227 127.736 87.1313 126.435 87.423 126.292C88.6896 125.671 88.1389 128.635 88.8211 129.156C89.0594 129.339 89.3306 129.134 89.5509 129.093C90.7282 128.872 91.2838 129.216 92.1691 128.159C93.7481 126.273 95.2379 124.243 93.4417 122.145C92.9364 121.554 91.6923 122.854 91.0721 122.737C90.1294 122.56 89.5838 121.387 88.5604 121.238C88.1414 121.177 87.8557 121.509 87.4397 121.426C87.0509 121.347 85.9304 121.026 85.6198 120.821C85.2264 120.562 85.6555 120.521 85.2171 120.29C84.7708 120.054 84.9004 120.331 84.4991 120.377C83.9764 120.436 83.7085 119.182 83.28 119.227Z" fill="#6d4646" fill-rule="evenodd" opacity="1" stroke="none"/>
<path d="M85.2265 120.419C86.5702 119.729 86.5804 122.19 88.449 122.332" fill="#6d4646" fill-rule="evenodd" opacity="1" stroke="none"/>
<path d="M89.3519 121.807C89.4656 121.78 92.157 121.862 92.3043 121.91C92.6971 122.039 92.7527 122.412 93.1738 122.494C93.8821 122.631 94.3928 121.794 94.996 122.482C95.9577 123.578 95.3203 125.632 94.1215 126.25C93.5299 126.555 92.7432 126.65 92.0933 126.749" fill="#6d4646" fill-rule="evenodd" opacity="1" stroke="none"/>
<path d="M79.6299 111.539C79.3904 111.555 80.9053 113.973 81.2102 114.323C81.6882 114.871 81.3787 115.416 81.5516 116.037C81.7225 116.651 82.3324 117.357 82.6606 117.911C82.8025 118.15 83.587 119.792 83.3783 119.955C82.8365 120.378 81.1646 117.281 80.8098 116.953C80.2463 116.432 77.9828 116.18 77.924 115.749C77.8318 115.074 79.1976 114.659 79.1585 113.763C79.1405 113.352 79.1453 112.688 78.9948 112.299C78.749 111.663 77.5734 111.287 78.0423 110.547C79.0631 108.936 80.3895 111.49 79.6299 111.539Z" fill="#6d4646" fill-rule="evenodd" opacity="1" stroke="none"/>
<path d="M69.7183 97.5755C70.3778 99.8934 71.4144 102.402 71.3604 104.838C71.3436 105.597 70.9816 106.312 70.9717 107.086C70.9545 108.439 71.858 109.091 72.4953 110.161C73.5639 111.956 73.3235 112.822 75.0285 114.327C75.9765 115.164 76.286 115.339 77.3906 114.613C78.3849 113.96 76.3082 112.401 76.54 111.475C76.6937 110.861 77.3403 110.91 77.7532 110.599C78.0127 110.404 78.6463 108.147 78.592 107.824C78.4934 107.237 77.8549 106.848 77.6728 106.276C77.114 104.519 76.5691 102.423 75.5142 100.882C75.1216 100.309 74.3759 100.169 73.8767 99.716C72.9376 98.8636 72.3839 98.2442 71.0903 97.8917" fill="#6d4646" fill-rule="evenodd" opacity="1" stroke="none"/>
<path d="M76.3482 110.685C77.1041 110.481 78.0563 110.401 78.5303 111.189C78.5876 111.284 78.6643 111.804 78.8031 111.852C79.6174 112.135 79.4575 110.658 79.3741 110.327C79.0491 109.039 78.4188 108.254 77.3053 107.559" fill="#6d4646" fill-rule="evenodd" opacity="1" stroke="none"/>
<path d="M75.0331 124.946C76.2732 125.757 77.2767 125.51 78.6868 125.583C80.1777 125.659 81.6105 126.102 83.1202 126.102C83.3567 126.102 85.557 125.904 85.5748 125.873C85.7928 125.489 84.6572 125.096 84.4282 125.002C83.3387 124.551 81.9435 124.569 81.0018 123.828C79.8679 122.937 79.9724 122.281 81.092 121.578C81.1995 121.51 82.1499 120.997 82.0752 120.847C81.9472 120.591 80.3782 121.038 80.1251 121.035C78.8187 121.018 73.7523 122.215 73.8127 119.981" fill="#6d4646" fill-rule="evenodd" opacity="1" stroke="none"/>
</g>
<g opacity="1">
<g opacity="1">
<g opacity="1">
<path d="M92.0021 54.1522L153.036 54.1522C154.487 54.1522 155.663 55.278 155.663 56.6667L155.663 98.2676C155.663 99.6564 154.487 100.782 153.036 100.782L92.0021 100.782C90.5513 100.782 89.3752 99.6564 89.3752 98.2676L89.3752 56.6667C89.3752 55.278 90.5513 54.1522 92.0021 54.1522Z" fill="#74828a" fill-rule="evenodd" opacity="1" stroke="none"/>
<path d="M93.0994 55.3999L152.083 55.3999C153.485 55.3999 154.621 56.4714 154.621 57.7931L154.621 97.3869C154.621 98.7087 153.485 99.7801 152.083 99.7801L93.0994 99.7801C91.6974 99.7801 90.5608 98.7087 90.5608 97.3869L90.5608 57.7931C90.5608 56.4714 91.6974 55.3999 93.0994 55.3999Z" fill="#ffffff" fill-rule="evenodd" opacity="1" stroke="none"/>
</g>
<g opacity="1">
<path d="M100.292 79.4846L101.635 79.4846L101.635 89.3658L100.292 89.3658L100.292 79.4846Z" fill="#664cfb" fill-rule="evenodd" opacity="1" stroke="none"/>
<path d="M107.549 79.9023L108.959 79.9023L108.959 89.3447L107.549 89.3447L107.549 79.9023Z" fill="#664cfb" fill-rule="evenodd" opacity="1" stroke="none"/>
<path d="M124.527 80.5181L125.932 80.5181L125.932 89.2795L124.527 89.2795L124.527 80.5181Z" fill="#664cfb" fill-rule="evenodd" opacity="1" stroke="none"/>
<path d="M109.886 76.7201L111.395 76.7201L111.395 89.5176L109.886 89.5176L109.886 76.7201Z" fill="#d466cf" fill-rule="evenodd" opacity="1" stroke="none"/>
<path d="M121.976 76.7498L123.369 76.7498L123.369 89.3516L121.976 89.3516L121.976 76.7498Z" fill="#d466cf" fill-rule="evenodd" opacity="1" stroke="none"/>
<path d="M105.142 85.8542L106.555 85.8542L106.555 89.2225L105.142 89.2225L105.142 85.8542Z" fill="#82e0ff" fill-rule="evenodd" opacity="1" stroke="none"/>
<path d="M112.349 87.3131L113.8 87.3131L113.8 89.5073L112.349 89.5073L112.349 87.3131Z" fill="#82e0ff" fill-rule="evenodd" opacity="1" stroke="none"/>
<path d="M117.284 84.3493L118.732 84.3493L118.732 89.4093L117.284 89.4093L117.284 84.3493Z" fill="#82e0ff" fill-rule="evenodd" opacity="1" stroke="none"/>
<path d="M119.453 78.5066L120.982 78.5066L120.982 89.4227L119.453 89.4227L119.453 78.5066Z" fill="#8ac8ff" fill-rule="evenodd" opacity="1" stroke="none"/>
<path d="M114.644 83.0685L116.195 83.0685L116.195 89.4345L114.644 89.4345L114.644 83.0685Z" fill="#8ac8ff" fill-rule="evenodd" opacity="1" stroke="none"/>
<path d="M102.628 82.8104L104.104 82.8104L104.104 89.3722L102.628 89.3722L102.628 82.8104Z" fill="#8ac8ff" fill-rule="evenodd" opacity="1" stroke="none"/>
<path d="M98.7261 74.505L98.7261 74.505C98.851 74.505 98.9524 74.6489 98.9524 74.8263L98.9524 90.1553C98.9524 90.3328 98.851 90.4767 98.7261 90.4767L98.7261 90.4767C98.6011 90.4767 98.4998 90.3328 98.4998 90.1553L98.4998 74.8263C98.4998 74.6489 98.6011 74.505 98.7261 74.505Z" fill="#18446b" fill-rule="evenodd" opacity="1" stroke="none"/>
<path d="M98.7273 89.9913L130.073 89.9913C130.205 89.9913 130.312 90.0983 130.312 90.2303L130.312 90.2303C130.312 90.3622 130.205 90.4692 130.073 90.4692L98.7273 90.4692C98.5951 90.4692 98.488 90.3622 98.488 90.2303L98.488 90.2303C98.488 90.0983 98.5951 89.9913 98.7273 89.9913Z" fill="#18446b" fill-rule="evenodd" opacity="1" stroke="none"/>
</g>
</g>
<g opacity="1">
<path d="M122.781 65.1875C122.508 64.6885 121.258 66.2525 117.656 66.6875C120.711 66.4292 122.229 65.8974 122.812 65.75C122.797 65.6133 122.815 65.2496 122.781 65.1875ZM122.812 65.75C122.844 66.031 122.876 66.2242 122.875 66.9062C122.872 69.3922 122.86 66.9318 116.375 66.875C116.914 66.8669 117.203 66.7422 117.656 66.6875C117.152 66.7302 116.791 66.8329 116.188 66.8438C116.148 66.7364 116.089 66.617 115.969 66.625C115.832 66.6342 115.723 66.7404 115.719 66.875C115.718 66.8836 115.718 66.8978 115.719 66.9062C116.246 68.7389 115.892 68.1687 116.25 68.75C118.166 71.8589 123.41 70.687 123.406 66.9062C123.405 65.7802 123.265 65.6356 122.812 65.75Z" fill="#534acc" stroke="none"/>
</g>
<g opacity="1">
<path d="M107.75 62.9375C107.067 62.6415 106.168 64.674 99.5312 66.5C99.4793 66.4499 99.4527 66.3699 99.375 66.375C99.2287 66.3846 99.1154 66.5099 99.125 66.6562C102.886 71.3985 100.634 70.8118 102.875 71.4062C105.916 72.2129 109.454 69.9622 109.344 66.6562C109.314 65.7695 109.12 64.9205 108.656 64.1562C108.203 63.4091 107.984 63.0388 107.75 62.9375ZM107.531 63.125C107.759 63.3036 107.989 63.8416 108.469 64.9375C108.714 65.4964 108.825 66.0499 108.844 66.6562C108.937 69.6086 108.828 66.6678 99.7188 66.625C106.232 65.3227 106.851 62.5927 107.531 63.125Z" fill="#a24acc" stroke="none"/>
</g>
<path d="M135.398 66.4469C135.398 63.3424 138.09 60.8258 141.412 60.8258C144.733 60.8258 147.426 63.3424 147.426 66.4469C147.426 69.5513 144.733 72.068 141.412 72.068C138.09 72.068 135.398 69.5513 135.398 66.4469Z" fill="#18446b" fill-rule="evenodd" opacity="1" stroke="none"/>
<g opacity="1">
<g opacity="1">
<path d="" fill="#233b6b" stroke="none"/>
</g>
<path d="M105.889 64.2562L106.86 64.3163L102.407 69.4655L101.437 69.4054L105.889 64.2562Z" fill="#18446b" fill-rule="evenodd" opacity="1" stroke="none"/>
<g opacity="1">
<path d="" fill="#233b6b" stroke="none"/>
</g>
</g>
<g opacity="1">
<g opacity="1">
<path d="" fill="#233b6b" stroke="none"/>
</g>
<path d="M120.591 65.0556L121.217 65.0973L118.343 68.6651L117.716 68.6234L120.591 65.0556Z" fill="#18446b" fill-rule="evenodd" opacity="1" stroke="none"/>
<g opacity="1">
<path d="" fill="#233b6b" stroke="none"/>
</g>
</g>
</g>
<g opacity="1">
<g opacity="1">
<g opacity="1">
<path d="M69.5773 128.868L120.937 128.868C121.624 128.868 122.182 129.433 122.182 130.129L122.182 130.129C122.182 130.825 121.624 131.39 120.937 131.39L69.5773 131.39C68.8897 131.39 68.3322 130.825 68.3322 130.129L68.3322 130.129C68.3322 129.433 68.8897 128.868 69.5773 128.868Z" fill="#747485" fill-rule="evenodd" opacity="1" stroke="none"/>
<path d="M103.599 107.874L137.52 108.029C138.571 108.034 138.947 108.917 138.361 110L127.789 129.538C127.203 130.621 125.876 131.496 124.825 131.491L90.9037 131.336C89.8532 131.332 89.4769 130.449 90.0633 129.365L100.635 109.828C101.221 108.744 102.548 107.87 103.599 107.874Z" fill="#747485" fill-rule="evenodd" opacity="1" stroke="none"/>
<path d="M104.644 107.299L139.107 107.459C140.174 107.464 140.556 108.372 139.96 109.489L129.22 129.609C128.625 130.725 127.276 131.625 126.209 131.621L91.7461 131.461C90.6788 131.456 90.2965 130.547 90.8923 129.431L101.632 109.311C102.228 108.195 103.576 107.294 104.644 107.299Z" fill="#c3c4db" fill-rule="evenodd" opacity="1" stroke="none"/>
<path d="M104.88 108.04L138.802 108.195C139.853 108.2 140.229 109.082 139.643 110.166L129.071 129.703C128.485 130.787 127.158 131.661 126.107 131.657L92.1854 131.502C91.1348 131.497 90.7585 130.615 91.3449 129.531L101.916 109.994C102.503 108.91 103.83 108.035 104.88 108.04Z" fill="#8c8da3" fill-rule="evenodd" opacity="1" stroke="none"/>
</g>
<path d="M29.7559 135.115L151.531 135.115C152.852 135.115 153.923 136.041 153.923 137.184L153.923 167.343C153.923 168.486 152.852 169.413 151.531 169.413L29.7559 169.413C28.4347 169.413 27.3636 168.486 27.3636 167.343L27.3636 137.184C27.3636 136.041 28.4347 135.115 29.7559 135.115Z" fill="#a98a78" fill-rule="evenodd" opacity="1" stroke="none"/>
<path d="M24.9323 131.411L155.628 131.411C157.18 131.411 158.438 132.667 158.438 134.216L158.438 134.216C158.438 135.766 157.18 137.022 155.628 137.022L24.9323 137.022C23.3806 137.022 22.1228 135.766 22.1228 134.216L22.1228 134.216C22.1228 132.667 23.3806 131.411 24.9323 131.411Z" fill="#b99580" fill-rule="evenodd" opacity="1" stroke="none"/>
<g opacity="1">
<g opacity="1">
<path d="M134.768 68.3599C134.449 68.9204 134.341 69.7176 134.377 70.5274C134.452 72.2165 135.129 74.0563 135.653 75.4501C135.953 76.2475 136.404 77.0172 136.527 77.9557C136.65 78.9042 136.623 79.859 136.495 80.7987C136.28 82.3859 135.794 83.7679 136.129 85.4319C136.425 86.9055 137.178 87.9468 137.484 89.3922C137.682 90.3272 137.632 91.4104 138.052 92.1925C138.816 93.6152 140.101 92.3734 140.491 90.9587C140.847 89.6663 140.464 88.7583 140.147 87.5857C139.895 86.6565 139.679 85.653 139.618 84.631C139.556 83.6038 139.575 82.5462 139.663 81.5258C139.855 79.3039 140.283 77.3335 139.376 75.3524C138.542 73.5324 136.992 73.1816 136.095 71.5383C135.731 70.8711 135.51 70.0495 135.299 69.2292C135.248 69.0289 135.242 68.7778 135.149 68.6256C135.051 68.4644 134.863 68.193 134.768 68.3599Z" fill="#778633" fill-rule="evenodd" opacity="1" stroke="none"/>
<g opacity="1">
<path d="M134.688 70.25C134.555 70.2892 134.492 70.4301 134.531 70.5625C135.076 72.4033 135.637 74.1942 136.375 75.9688C136.98 77.4235 137.789 78.7068 138.094 80.2812C138.717 83.4984 138.073 86.8172 138.281 90.0625C138.357 91.2459 138.778 92.3897 139.062 93.5312C139.403 94.8977 139.588 96.2903 139.75 97.6875C139.766 97.8247 139.894 97.9222 140.031 97.9062C140.168 97.8904 140.266 97.7622 140.25 97.625C140.086 96.2064 139.877 94.7936 139.531 93.4062C139.255 92.2955 138.855 91.1827 138.781 90.0312C138.573 86.7625 139.222 83.4284 138.594 80.1875C138.282 78.5765 137.462 77.2688 136.844 75.7812C136.113 74.023 135.54 72.2614 135 70.4375C134.961 70.3051 134.82 70.2108 134.688 70.25Z" fill="#221914" stroke="none"/>
</g>
<g opacity="1">
<path d="M140.031 97.0312C139.893 97.0308 139.782 97.1432 139.781 97.2812C139.751 101.001 139.744 101.826 139.75 101C139.748 101.418 139.754 101.832 139.75 102.25C139.746 102.663 139.753 103.913 139.75 103.5C139.744 102.674 139.738 103.477 139.719 104.719C139.717 104.857 139.831 104.998 139.969 105C140.107 105.002 140.217 104.888 140.219 104.75C140.249 101.027 140.256 100.204 140.25 101.031C140.252 100.613 140.279 100.2 140.281 99.7812C140.283 99.3674 140.289 98.1174 140.281 98.5312C140.266 99.3585 140.277 98.5226 140.281 97.2812C140.282 97.1432 140.169 97.0317 140.031 97.0312Z" fill="#221914" stroke="none"/>
</g>
</g>
<g opacity="1">
<path d="M146.441 69.268C146.758 69.8567 146.858 70.6717 146.811 71.49C146.714 73.1968 146.003 75.0175 145.454 76.396C145.14 77.1847 144.672 77.9355 144.536 78.8786C144.399 79.8318 144.414 80.8012 144.532 81.7618C144.731 83.3843 145.207 84.8163 144.846 86.481C144.526 87.9551 143.749 88.9615 143.42 90.4065C143.208 91.3412 143.245 92.4422 142.809 93.2076C142.016 94.5999 140.727 93.2581 140.349 91.7991C140.004 90.4663 140.404 89.571 140.741 88.4032C141.008 87.4779 141.24 86.4749 141.315 85.4431C141.39 84.4062 141.384 83.3331 141.308 82.2933C141.141 80.0292 140.731 78.0046 141.677 76.0557C142.546 74.2653 144.124 74.0103 145.054 72.4031C145.432 71.7505 145.667 70.9322 145.891 70.1146C145.946 69.915 145.955 69.6608 146.051 69.5126C146.153 69.3557 146.347 69.0928 146.441 69.268Z" fill="#193124" fill-rule="evenodd" opacity="1" stroke="none"/>
<g opacity="1">
<path d="M146.5 71.1875C146.368 71.1461 146.229 71.212 146.188 71.3438C145.618 73.1546 145.016 74.9481 144.25 76.6875C143.602 78.1591 142.773 79.3946 142.438 81C141.754 84.2708 142.378 87.6949 142.125 91C142.037 92.1534 141.576 93.2351 141.281 94.3438C140.912 95.7325 140.684 97.1703 140.5 98.5938C140.482 98.7307 140.582 98.8573 140.719 98.875C140.856 98.8927 140.982 98.7932 141 98.6562C141.181 97.2545 141.417 95.8676 141.781 94.5C142.084 93.3601 142.502 92.2172 142.594 91.0312C142.847 87.75 142.228 84.3717 142.906 81.125C143.234 79.5573 144.085 78.313 144.719 76.875C145.492 75.119 146.081 73.3283 146.656 71.5C146.698 71.3683 146.632 71.2289 146.5 71.1875Z" fill="#221914" stroke="none"/>
</g>
<g opacity="1">
<path d="M140.812 98.3125C140.675 98.3055 140.538 98.4246 140.531 98.5625C140.433 101.452 140.429 101.758 140.438 101.438C140.429 101.758 140.407 102.085 140.406 102.406C140.406 102.727 140.39 102.414 140.344 104.344C140.34 104.482 140.456 104.59 140.594 104.594C140.732 104.597 140.84 104.482 140.844 104.344C140.91 102.401 140.899 102.61 140.906 102.406C140.907 101.767 140.902 101.139 140.938 100.5C140.955 100.179 140.934 100.48 141.031 98.5625C141.038 98.4246 140.95 98.3195 140.812 98.3125Z" fill="#221914" stroke="none"/>
</g>
</g>
<g opacity="1">
<path d="M145.442 81.5454C145.048 81.6835 144.744 82.1118 144.543 82.6454C144.125 83.7582 144.112 85.3707 144.109 86.5992C144.108 87.3022 144.226 88.0895 144.054 88.762C143.88 89.4417 143.592 90.0238 143.233 90.529C142.628 91.3823 141.88 91.9249 141.662 93.1966C141.468 94.3226 141.735 95.4838 141.556 96.5984C141.441 97.3194 141.099 97.9666 141.192 98.7409C141.359 100.149 142.66 100.232 143.346 99.6041C143.972 99.0305 143.944 98.2024 144.037 97.2515C144.111 96.498 144.232 95.7216 144.474 95.0378C144.716 94.3504 145.027 93.6979 145.378 93.1153C146.144 91.8469 147.014 90.8956 146.897 89.0397C146.789 87.3347 145.738 86.0723 145.534 84.436C145.451 83.7718 145.518 83.1064 145.592 82.449C145.61 82.2884 145.676 82.1265 145.649 81.9683C145.622 81.8008 145.559 81.5043 145.442 81.5454Z" fill="#778633" fill-rule="evenodd" opacity="1" stroke="none"/>
<g opacity="1">
<path d="M144.844 82.625C144.706 82.6148 144.604 82.7373 144.594 82.875C144.479 84.4325 144.39 85.9687 144.438 87.5312C144.477 88.8304 144.734 90.0747 144.5 91.375C144.095 93.6256 142.645 95.4904 141.906 97.625C141.605 98.4943 141.623 99.443 141.5 100.344C141.357 101.394 141.146 102.414 140.875 103.438C140.84 103.571 140.898 103.683 141.031 103.719C141.165 103.754 141.308 103.696 141.344 103.562C141.62 102.519 141.854 101.477 142 100.406C142.118 99.5414 142.085 98.6154 142.375 97.7812C143.126 95.6188 144.589 93.7198 145 91.4375C145.241 90.0991 144.978 88.8364 144.938 87.5C144.891 85.9548 144.98 84.4465 145.094 82.9062C145.104 82.7686 144.981 82.6352 144.844 82.625Z" fill="#221914" stroke="none"/>
</g>
</g>
<g opacity="1">
<path d="M132.597 80.7003C132.32 80.9692 132.24 81.4438 132.292 81.9651C132.401 83.0523 133.062 84.3957 133.572 85.4162C133.864 86 134.294 86.6068 134.428 87.2325C134.563 87.8647 134.561 88.4607 134.467 89.0203C134.309 89.9655 133.899 90.7088 134.244 91.8496C134.55 92.8598 135.261 93.7189 135.574 94.7138C135.776 95.3573 135.756 96.0282 136.157 96.6345C136.887 97.7375 138.028 97.2962 138.349 96.5065C138.642 95.785 138.272 95.1093 137.955 94.2836C137.704 93.6293 137.483 92.9376 137.403 92.2756C137.322 91.6102 137.314 90.947 137.37 90.3259C137.491 88.9733 137.834 87.8429 136.96 86.3488C136.157 84.9762 134.737 84.3406 133.881 83.0628C133.534 82.544 133.312 81.9658 133.101 81.3914C133.049 81.2511 133.038 81.0908 132.95 80.9698C132.856 80.8417 132.679 80.6202 132.597 80.7003Z" fill="#193124" fill-rule="evenodd" opacity="1" stroke="none"/>
<g opacity="1">
<path d="M132.562 81.8125C132.435 81.8652 132.354 82.0286 132.406 82.1562C132.959 83.4963 133.527 84.7865 134.219 86.0625C134.793 87.1229 135.53 88.0421 135.875 89.2188C136.466 91.2345 136.019 93.3804 136.281 95.4375C136.389 96.2828 136.822 97.0473 137.094 97.8438C137.41 98.7691 137.616 99.6996 137.812 100.656C137.84 100.791 137.99 100.872 138.125 100.844C138.26 100.816 138.34 100.698 138.312 100.562C138.112 99.5854 137.885 98.6327 137.562 97.6875C137.303 96.9262 136.883 96.183 136.781 95.375C136.518 93.2864 136.975 91.1417 136.375 89.0938C136.019 87.8793 135.249 86.9062 134.656 85.8125C133.973 84.5518 133.421 83.2615 132.875 81.9375C132.822 81.8099 132.69 81.7598 132.562 81.8125Z" fill="#221914" stroke="none"/>
</g>
<g opacity="1">
<path d="M138 100.312C137.863 100.325 137.769 100.456 137.781 100.594C137.906 102.407 137.918 102.608 137.906 102.406C137.894 102.207 137.887 101.614 137.906 101.812C137.945 102.212 137.96 102.599 137.969 103C137.973 103.202 137.966 103.01 138.031 104.219C138.039 104.357 138.143 104.445 138.281 104.438C138.419 104.43 138.539 104.325 138.531 104.188C138.406 102.365 138.394 102.176 138.406 102.375C138.419 102.58 138.473 103.174 138.469 102.969C138.46 102.564 138.445 102.153 138.406 101.75C138.387 101.551 138.393 101.755 138.281 100.531C138.269 100.394 138.138 100.3 138 100.312Z" fill="#221914" stroke="none"/>
</g>
</g>
<g opacity="1">
<path d="M136.884 103.678L134.982 125.693L136.843 131.418L142.77 131.734L144.975 126.581L143.08 103.355L136.884 103.678Z" fill="#322b23" fill-rule="evenodd" opacity="1" stroke="none"/>
<path d="M137.133 103.7L135.036 125.633L136.85 131.402L141.233 131.395L143.532 127.093L138.225 126.559L137.133 103.7Z" fill="#564a3d" fill-rule="evenodd" opacity="0.614646" stroke="none"/>
<path d="M140.484 105.829L139.655 123.753L143.923 124.43L140.484 105.829Z" fill="#7b6854" fill-rule="evenodd" opacity="0.252274" stroke="none"/>
</g>
</g>
<g opacity="1">
<g opacity="1">
<path d="M146.489 91.116C146.238 91.4741 146.153 91.9833 146.181 92.5006C146.24 93.5796 146.772 94.7549 147.183 95.6452C147.419 96.1546 147.773 96.6463 147.869 97.2458C147.967 97.8516 147.945 98.4616 147.845 99.0619C147.675 100.076 147.294 100.959 147.557 102.022C147.79 102.963 148.381 103.628 148.622 104.551C148.777 105.149 148.737 105.841 149.067 106.34C149.667 107.249 150.677 106.456 150.982 105.552C151.262 104.726 150.962 104.146 150.712 103.397C150.515 102.804 150.345 102.163 150.297 101.51C150.249 100.854 150.263 100.178 150.333 99.5263C150.483 98.107 150.82 96.8483 150.107 95.5828C149.452 94.4202 148.235 94.1961 147.531 93.1464C147.245 92.7202 147.071 92.1953 146.906 91.6714C146.865 91.5434 146.861 91.383 146.788 91.2857C146.71 91.1828 146.563 91.0094 146.489 91.116Z" fill="#778633" fill-rule="evenodd" opacity="1" stroke="none"/>
<g opacity="1">
<path d="M146.406 92.25C146.276 92.2972 146.203 92.4327 146.25 92.5625C146.683 93.7524 147.142 94.9022 147.719 96.0312C148.19 96.9538 148.786 97.7186 149.031 98.75C149.516 100.783 149.024 102.94 149.188 105C149.249 105.778 149.6 106.479 149.812 107.219C150.064 108.094 150.207 108.976 150.344 109.875C150.365 110.012 150.489 110.083 150.625 110.062C150.762 110.042 150.865 109.918 150.844 109.781C150.704 108.861 150.539 107.989 150.281 107.094C150.079 106.389 149.745 105.709 149.688 104.969C149.525 102.879 150.023 100.689 149.531 98.625C149.275 97.5494 148.647 96.7733 148.156 95.8125C147.589 94.7016 147.145 93.577 146.719 92.4062C146.672 92.2765 146.536 92.2028 146.406 92.25Z" fill="#221914" stroke="none"/>
</g>
<g opacity="1">
<path d="M150.625 109.344C150.487 109.343 150.376 109.456 150.375 109.594C150.351 111.969 150.342 112.232 150.344 111.969C150.342 112.232 150.35 112.487 150.344 112.75C150.338 113.014 150.343 112.759 150.312 114.344C150.31 114.482 150.424 114.591 150.562 114.594C150.701 114.596 150.81 114.482 150.812 114.344C150.828 112.778 150.842 112.967 150.844 112.781C150.838 113.045 150.842 112.233 150.844 111.969C150.845 111.71 150.877 111.447 150.875 111.188C150.873 110.923 150.869 111.18 150.875 109.594C150.876 109.456 150.763 109.344 150.625 109.344Z" fill="#221914" stroke="none"/>
</g>
</g>
<g opacity="1">
<path d="M155.656 91.6961C155.904 92.0722 155.983 92.5928 155.946 93.1155C155.87 94.2058 155.312 95.3689 154.88 96.2494C154.634 96.7532 154.266 97.2328 154.16 97.8353C154.051 98.4442 154.064 99.0634 154.156 99.6771C154.313 100.713 154.686 101.628 154.403 102.692C154.152 103.633 153.541 104.276 153.283 105.199C153.116 105.796 153.146 106.5 152.803 106.989C152.18 107.878 151.168 107.021 150.871 106.089C150.6 105.237 150.914 104.666 151.179 103.92C151.389 103.328 151.571 102.688 151.63 102.029C151.689 101.366 151.684 100.681 151.624 100.017C151.493 98.5703 151.171 97.277 151.914 96.0321C152.597 94.8884 153.836 94.7255 154.567 93.6988C154.863 93.2819 155.048 92.7592 155.224 92.2369C155.267 92.1094 155.274 91.947 155.35 91.8523C155.43 91.7521 155.582 91.5842 155.656 91.6961Z" fill="#193124" fill-rule="evenodd" opacity="1" stroke="none"/>
<g opacity="1">
<path d="M155.719 92.8438C155.59 92.7939 155.456 92.8712 155.406 93C154.956 94.1629 154.501 95.2769 153.906 96.375C153.392 97.3254 152.745 98.0821 152.469 99.1562C151.934 101.236 152.385 103.45 152.188 105.562C152.118 106.305 151.779 106.984 151.562 107.688C151.286 108.584 151.094 109.482 150.938 110.406C150.915 110.542 151.02 110.665 151.156 110.688C151.292 110.71 151.415 110.605 151.438 110.469C151.59 109.566 151.762 108.72 152.031 107.844C152.259 107.105 152.613 106.374 152.688 105.594C152.885 103.512 152.411 101.33 152.938 99.2812C153.202 98.2525 153.85 97.5053 154.344 96.5938C154.948 95.4772 155.417 94.3387 155.875 93.1562C155.925 93.0275 155.848 92.8936 155.719 92.8438Z" fill="#221914" stroke="none"/>
</g>
<g opacity="1">
<path d="M151.25 110.156C151.112 110.148 150.977 110.268 150.969 110.406C150.891 112.254 150.899 112.455 150.906 112.25C150.913 112.044 150.92 111.42 150.906 111.625C150.879 112.035 150.844 112.433 150.844 112.844C150.843 113.049 150.849 112.861 150.812 114.094C150.808 114.232 150.924 114.34 151.062 114.344C151.201 114.348 151.308 114.232 151.312 114.094C151.39 112.254 151.413 112.076 151.406 112.281C151.399 112.484 151.343 113.078 151.344 112.875C151.344 112.467 151.379 112.063 151.406 111.656C151.42 111.451 151.392 111.661 151.469 110.438C151.477 110.3 151.388 110.165 151.25 110.156Z" fill="#221914" stroke="none"/>
</g>
</g>
<g opacity="1">
<path d="M154.871 99.5388C154.561 99.627 154.323 99.9007 154.165 100.242C153.837 100.952 153.826 101.982 153.824 102.767C153.823 103.216 153.916 103.719 153.781 104.149C153.644 104.583 153.418 104.955 153.136 105.278C152.661 105.823 152.074 106.169 151.902 106.982C151.75 107.701 151.96 108.443 151.819 109.155C151.729 109.615 151.461 110.029 151.533 110.523C151.665 111.423 152.687 111.476 153.225 111.075C153.717 110.708 153.694 110.179 153.768 109.572C153.826 109.09 153.921 108.595 154.11 108.158C154.301 107.719 154.545 107.302 154.821 106.93C155.422 106.119 156.105 105.512 156.013 104.326C155.929 103.237 155.103 102.431 154.943 101.385C154.878 100.961 154.93 100.536 154.988 100.116C155.003 100.013 155.054 99.91 155.034 99.809C155.012 99.702 154.963 99.5126 154.871 99.5388Z" fill="#778633" fill-rule="evenodd" opacity="1" stroke="none"/>
<g opacity="1">
<path d="M154.406 100.156C154.269 100.144 154.169 100.237 154.156 100.375C154.066 101.375 153.978 102.369 154.031 103.375C154.075 104.193 154.276 104.964 154.094 105.781C153.766 107.253 152.643 108.416 152.062 109.781C151.826 110.337 151.817 110.946 151.719 111.531C151.606 112.204 151.43 112.821 151.219 113.469C151.176 113.6 151.244 113.738 151.375 113.781C151.506 113.824 151.676 113.756 151.719 113.625C151.937 112.954 152.102 112.322 152.219 111.625C152.309 111.084 152.28 110.482 152.5 109.969C153.098 108.572 154.261 107.417 154.594 105.906C154.785 105.039 154.578 104.211 154.531 103.344C154.479 102.362 154.568 101.382 154.656 100.406C154.669 100.269 154.544 100.169 154.406 100.156Z" fill="#221914" stroke="none"/>
</g>
</g>
<g opacity="1">
<path d="M144.783 98.999C144.565 99.1708 144.503 99.474 144.544 99.8069C144.629 100.501 145.148 101.36 145.549 102.011C145.778 102.384 146.116 102.772 146.221 103.172C146.327 103.576 146.326 103.956 146.252 104.314C146.128 104.918 145.806 105.392 146.077 106.121C146.317 106.766 146.875 107.315 147.121 107.951C147.28 108.362 147.264 108.79 147.579 109.178C148.153 109.882 149.049 109.6 149.301 109.096C149.531 108.635 149.24 108.203 148.991 107.676C148.794 107.258 148.62 106.816 148.557 106.393C148.494 105.968 148.488 105.545 148.531 105.148C148.627 104.284 148.896 103.562 148.21 102.607C147.579 101.73 146.464 101.324 145.792 100.508C145.519 100.177 145.345 99.8074 145.179 99.4404C145.139 99.3508 145.13 99.2484 145.06 99.1711C144.987 99.0893 144.848 98.9478 144.783 98.999Z" fill="#193124" fill-rule="evenodd" opacity="1" stroke="none"/>
<g opacity="1">
<path d="M144.719 99.625C144.596 99.6875 144.531 99.8456 144.594 99.9688C145.033 100.835 145.48 101.697 146.031 102.5C146.483 103.158 147.038 103.703 147.312 104.469C147.766 105.732 147.42 107.135 147.625 108.438C147.713 108.999 148.034 109.485 148.25 110C148.495 110.583 148.689 111.169 148.844 111.781C148.878 111.915 148.991 112.003 149.125 111.969C149.259 111.935 149.346 111.79 149.312 111.656C149.152 111.02 148.973 110.419 148.719 109.812C148.52 109.34 148.204 108.859 148.125 108.344C147.918 107.003 148.252 105.615 147.781 104.312C147.488 103.503 146.916 102.915 146.438 102.219C145.899 101.435 145.461 100.596 145.031 99.75C144.969 99.6269 144.842 99.5625 144.719 99.625Z" fill="#221914" stroke="none"/>
</g>
<g opacity="1">
<path d="M149.031 111.438C148.894 111.453 148.797 111.582 148.812 111.719C148.878 112.5 148.868 112.419 148.875 112.5C148.86 112.374 148.897 112.748 148.906 112.875C148.916 113.003 148.934 113.122 148.938 113.25C148.941 113.379 148.949 113.26 149 114.031C149.009 114.169 149.112 114.259 149.25 114.25C149.388 114.241 149.509 114.138 149.5 114C149.435 113.232 149.445 113.31 149.438 113.219C149.441 113.351 149.416 112.944 149.406 112.812C149.397 112.688 149.39 112.561 149.375 112.438C149.36 112.311 149.401 112.44 149.312 111.656C149.297 111.519 149.168 111.422 149.031 111.438Z" fill="#221914" stroke="none"/>
</g>
</g>
<g opacity="1">
<path d="M148.15 113.677L146.656 127.74L148.118 131.397L152.773 131.599L154.504 128.307L153.016 113.471L148.15 113.677Z" fill="#322b23" fill-rule="evenodd" opacity="1" stroke="none"/>
<path d="M148.346 113.691L146.699 127.702L148.123 131.387L151.565 131.382L153.371 128.634L149.203 128.293L148.346 113.691Z" fill="#564a3d" fill-rule="evenodd" opacity="0.614646" stroke="none"/>
<path d="M150.977 115.051L150.326 126.501L153.678 126.933L150.977 115.051Z" fill="#7b6854" fill-rule="evenodd" opacity="0.252274" stroke="none"/>
</g>
</g>
</g>
<g opacity="1">
<path d="M36.7606 131.173L34.0728 146.687L60.6547 145.537L62.0335 131.207L36.7606 131.173Z" fill="#dfdfdf" fill-rule="evenodd" opacity="1" stroke="none"/>
<path d="M58.8781 138.448L41.6566 139.271L58.8781 138.448Z" fill="none" fill-rule="evenodd" opacity="1" stroke="#919191" stroke-linecap="round" stroke-linejoin="round" stroke-width="0.5"/>
<path d="M58.6036 140.991L38.2418 142.418L58.6036 140.991Z" fill="none" fill-rule="evenodd" opacity="1" stroke="#919191" stroke-linecap="round" stroke-linejoin="round" stroke-width="0.5"/>
<path d="M36.271 144.568L58.5601 143.362L36.271 144.568Z" fill="none" fill-rule="evenodd" opacity="1" stroke="#919191" stroke-linecap="round" stroke-linejoin="round" stroke-width="0.5"/>
<path d="M59.228 136.151L42.0065 136.973L59.228 136.151Z" fill="none" fill-rule="evenodd" opacity="1" stroke="#919191" stroke-linecap="round" stroke-linejoin="round" stroke-width="0.5"/>
<path d="M59.6282 132.003L42.4067 132.826L59.6282 132.003Z" fill="none" fill-rule="evenodd" opacity="1" stroke="#919191" stroke-linecap="round" stroke-linejoin="round" stroke-width="0.5"/>
<path d="M59.4934 133.986L42.2719 134.808L59.4934 133.986Z" fill="none" fill-rule="evenodd" opacity="1" stroke="#919191" stroke-linecap="round" stroke-linejoin="round" stroke-width="0.5"/>
<path d="M35.3465 131.035L28.4575 140.799L46.1795 147.723L58.1065 131.403L35.3465 131.035Z" fill="#ffffff" fill-rule="evenodd" opacity="1" stroke="none"/>
<path d="M32.5463 138.832L45.9907 144.187L32.5463 138.832Z" fill="none" fill-rule="evenodd" opacity="1" stroke="#919191" stroke-linecap="round" stroke-linejoin="round" stroke-width="0.5"/>
<path d="M36.0632 133.229L49.5076 138.585L36.0632 133.229Z" fill="none" fill-rule="evenodd" opacity="1" stroke="#919191" stroke-linecap="round" stroke-linejoin="round" stroke-width="0.5"/>
<path d="M34.8674 135.043L48.3118 140.398L34.8674 135.043Z" fill="none" fill-rule="evenodd" opacity="1" stroke="#919191" stroke-linecap="round" stroke-linejoin="round" stroke-width="0.5"/>
<path d="M33.6701 136.912L47.1144 142.267L33.6701 136.912Z" fill="none" fill-rule="evenodd" opacity="1" stroke="#919191" stroke-linecap="round" stroke-linejoin="round" stroke-width="0.5"/>
</g>
</g>
</g>
</svg>
